# xmcd
#
# Track frame offsets: 
#        150
#        13020
#        32016
#        48876
#        64749
#        75209
#        88462
#        107908
#        124446
#        135982
#
# Disc length: 2057 seconds
#
# Revision: 0
# Processed by: cddbd v1.5.2PL0 Copyright (c) Steve Scherf et al.
# Submitted via: ExactAudioCopyFreeDBPlugin 1.0
#
DISCID=7d08070a
DTITLE=Dave Hogan's Meltdown - Holler and Twang
DYEAR=2008
DGENRE=Blues
TTITLE0=Way Too Much
TTITLE1=Going To Texas (Texas Old)
TTITLE2=Holler and Twang
TTITLE3=April Fool
TTITLE4=Hole In My Head
TTITLE5=Jesterman
TTITLE6=Lonely Women Make Good Lovers
TTITLE7=The Part I Like The Best
TTITLE8=Little Mama
TTITLE9=That's How I Got To Memphis
EXTD=
EXTT0=
EXTT1=
EXTT2=
EXTT3=
EXTT4=
EXTT5=
EXTT6=
EXTT7=
EXTT8=
EXTT9=
PLAYORDER=
